<svg id="visual" viewBox="0 0 540 960" width="540" height="960" xmlns="http://www.w3.org/2000/svg" xmlns:xlink="http://www.w3.org/1999/xlink" version="1.1"><rect x="0" y="0" width="540" height="960" fill="#022913"></rect><g transform="translate(338.8554025644046 540.6737492674065)"><path d="M201 -389.2C201 -276.7 100.5 -138.3 79.6 -59.6C58.7 19.1 117.3 38.1 181.2 126C245 213.9 314.1 370.7 284.8 425.7C255.5 480.7 127.7 433.8 54.3 359.1C-19.2 284.4 -38.4 181.9 -78.3 130.3C-118.3 78.8 -179 78.3 -257.8 36.4C-336.7 -5.6 -433.7 -89 -429.3 -150.9C-424.9 -212.8 -319.1 -253.3 -230.7 -337C-142.2 -420.8 -71.1 -547.9 14.7 -568.1C100.5 -588.3 201 -501.7 201 -389.2" fill="#034520"></path></g></svg>