<svg id="visual" viewBox="0 0 540 960" width="540" height="960" xmlns="http://www.w3.org/2000/svg"
    xmlns:xlink="http://www.w3.org/1999/xlink" version="1.1">
    <rect x="0" y="0" width="540" height="960" fill="#1f1f1f"></rect>
    <defs>
        <linearGradient id="grad1_0" x1="0%" y1="0%" x2="100%" y2="100%">
            <stop offset="30%" stop-color="#1f1f1f" stop-opacity="1"></stop>
            <stop offset="70%" stop-color="#1f1f1f" stop-opacity="1"></stop>
        </linearGradient>
    </defs>
    <defs>
        <linearGradient id="grad2_0" x1="0%" y1="0%" x2="100%" y2="100%">
            <stop offset="30%" stop-color="#1f1f1f" stop-opacity="1"></stop>
            <stop offset="70%" stop-color="#1f1f1f" stop-opacity="1"></stop>
        </linearGradient>
    </defs>
    <g transform="translate(540, 0)">
        <path
            d="M0 432C-51.7 380.1 -103.4 328.3 -172.5 298.8C-241.6 269.3 -328 262.1 -374.1 216C-420.3 169.9 -426.1 85 -432 0L0 0Z"
            fill="#00401c"></path>
    </g>
    <g transform="translate(0, 960)">
        <path
            d="M0 -432C48.5 -374.6 97 -317.2 166.5 -288.4C236 -259.6 326.4 -259.3 374.1 -216C421.9 -172.7 426.9 -86.3 432 0L0 0Z"
            fill="#00401c"></path>
    </g>
</svg>