<svg xmlns="http://www.w3.org/2000/svg" xmlns:xlink="http://www.w3.org/1999/xlink" version="1.1" x="0px" y="0px"
    viewBox="0 0 100 125" enable-background="new 0 0 100 100" xml:space="preserve">
    <path
        d="M88.468,86.184l8.316-8.318c0.772-0.77,0.772-2.021,0-2.791c-0.771-0.771-2.02-0.771-2.79,0l-8.318,8.316l-8.317-8.316  c-0.771-0.771-2.021-0.771-2.792,0c-0.771,0.77-0.771,2.021,0,2.791l8.318,8.318L74.566,94.5c-0.771,0.771-0.771,2.023,0,2.791  c0.386,0.385,0.893,0.578,1.396,0.578c0.506,0,1.011-0.193,1.396-0.578l8.316-8.316l8.318,8.316  c0.386,0.385,0.892,0.578,1.396,0.578s1.011-0.193,1.396-0.578c0.771-0.768,0.771-2.02,0-2.791L88.468,86.184z M63.956,89.955  H17.769c-6.168,0-11.187-5.02-11.187-11.186V17.265c0-6.168,5.019-11.187,11.187-11.187h59.484c6.169,0,11.187,5.018,11.187,11.187  v40.02c0,1.092,0.884,1.975,1.974,1.975s1.975-0.883,1.975-1.975v-40.02c0-8.345-6.79-15.135-15.135-15.135H17.769  c-8.345,0-15.135,6.79-15.135,15.135v61.5c0,8.346,6.79,15.135,15.135,15.135h46.188c1.09,0,1.974-0.881,1.974-1.975  C65.93,90.836,65.046,89.955,63.956,89.955z M45.858,54.262c-2.054-1.131-4.414-1.775-6.922-1.775  c-7.93,0-14.358,6.428-14.358,14.357s6.429,14.357,14.358,14.357c7.929,0,14.357-6.428,14.357-14.357  c0-0.297-0.016-0.588-0.031-0.879l0.031,0.047v-35.1h14.229V16.167H45.858V54.262z" />
</svg>